<svg width="24" height="18" viewBox="0 0 24 18" fill="none" xmlns="http://www.w3.org/2000/svg">
<path d="M5.92246 2.11328C5.35886 2.91268 4.62486 3.59845 4.23328 4.49348C4.09265 4.81494 4.04594 5.16379 3.8963 5.47457C3.74406 5.79076 3.56136 6.16121 3.44841 6.48978C3.22527 7.13893 2.70187 7.64586 2.34362 8.20882C2.13289 8.53997 1.78462 9.05553 1.46065 9.29228C1.29567 9.41284 0.853349 9.99197 1.04902 10.0409C1.50464 10.1548 1.89119 10.3971 2.2967 10.6359C2.85435 10.9643 3.40976 11.2121 3.90697 11.632C4.53559 12.1628 5.28154 12.5409 5.89687 13.0908C6.3793 13.5219 6.79835 14.0214 7.28745 14.4494C7.70974 14.8189 8.21839 15.0913 8.64818 15.4539C8.67986 15.4807 8.98581 15.7377 8.9489 15.793C8.91082 15.8502 8.45468 15.2643 8.41783 15.2044" stroke="#00ADB5" stroke-linecap="round" stroke-linejoin="round"/>
<path d="M15.6736 1.46066C14.775 3.59617 13.7924 5.69403 12.901 7.83346C12.348 9.16052 11.8832 10.502 11.4123 11.8623C11.0421 12.9316 10.5836 13.9751 10.1838 15.0317C10.0449 15.3986 9.94949 15.7733 9.86813 16.1556C9.73496 16.7816 9.74851 16.0527 9.76149 15.7803" stroke="#00ADB5" stroke-linecap="round" stroke-linejoin="round"/>
<path d="M17.6699 1C18.4524 1.89138 19.2016 2.7882 20.0331 3.63187C20.7125 4.32136 21.0132 5.31768 21.3938 6.1827C21.7887 7.08034 22.1841 7.82368 22.7673 8.60129C22.8363 8.69329 23.0403 8.92108 23.0403 9.04065C23.0403 9.09812 22.7651 9.09654 22.7204 9.1025C22.5684 9.12277 22.3872 9.2516 22.2597 9.33071C19.948 10.7655 18.3851 12.8394 17.0258 15.1362C16.7935 15.5287 16.6215 16.0966 16.2857 16.3988C16.069 16.5939 15.8921 16.8505 15.6352 16.9789C15.3936 17.0997 15.5649 16.6722 15.5968 16.4329" stroke="#00ADB5" stroke-linecap="round" stroke-linejoin="round"/>
</svg>
