<svg width="74" height="158" viewBox="0 0 74 158" fill="none" xmlns="http://www.w3.org/2000/svg">
<path d="M4.89124 7.42764C3.33866 7.65731 1.51186 7.7785 1.1421 9.62734C0.855539 11.0601 0.964001 12.5348 1.82284 13.7778C3.29041 15.9019 5.47082 17.1416 8.09682 16.704C10.4448 16.3126 13.6697 14.1849 13.6697 11.5426C13.6697 10.0524 12.5967 8.55284 11.7088 7.4378C10.7571 6.24265 9.93489 4.986 8.73691 4.0087C7.12108 2.69052 5.81581 2.56111 4.36291 4.11538C3.56787 4.96589 2.81599 6.12615 2.46801 7.23967C2.29648 7.78858 2.42229 8.22861 2.42229 8.77896C2.42229 9.51242 2.28619 8.43066 2.42229 8.06774" stroke="#00ADB5" stroke-linecap="round" stroke-linejoin="round"/>
<path d="M12.9382 11.626C14.2594 12.7991 15.3793 13.8601 17.7156 13.9174C19.3515 13.9575 20.9866 13.5491 22.5195 13.1097C23.617 12.7951 27.1356 11.1287 24.2845 10.9939" stroke="#00ADB5" stroke-linecap="round" stroke-linejoin="round"/>
<path d="M26.5632 1.39246C24.8197 3.31787 22.4132 7.09086 23.317 9.98299C23.6348 11 24.0964 11.6847 24.6937 12.5535C25.8957 14.302 27.7588 13.7571 29.4487 13.3003C30.6738 12.9692 32.1294 11.9262 32.5984 10.7399C33.2456 9.10273 31.8967 6.54314 30.7695 5.41594C29.511 4.1574 28.514 2.62627 27.1118 1.52455C26.7387 1.2314 26.4554 0.913475 25.9688 1.02161C25.4218 1.14318 25.1965 1.66679 25.9231 1.66679" stroke="#00ADB5" stroke-linecap="round" stroke-linejoin="round"/>
<path d="M44.8913 147.428C43.3387 147.657 41.5119 147.779 41.1421 149.627C40.8556 151.06 40.964 152.535 41.8229 153.778C43.2904 155.902 45.4708 157.142 48.0968 156.704C50.4448 156.313 53.6698 154.185 53.6698 151.543C53.6698 150.052 52.5967 148.553 51.7088 147.438C50.7571 146.243 49.9349 144.986 48.7369 144.009C47.1211 142.691 45.8158 142.561 44.3629 144.115C43.5679 144.966 42.816 146.126 42.468 147.24C42.2965 147.789 42.4223 148.229 42.4223 148.779C42.4223 149.512 42.2862 148.431 42.4223 148.068" stroke="#00ADB5" stroke-linecap="round" stroke-linejoin="round"/>
<path d="M52.9382 151.626C54.2594 152.799 55.3793 153.86 57.7156 153.917C59.3515 153.957 60.9866 153.549 62.5195 153.11C63.617 152.795 67.1356 151.129 64.2845 150.994" stroke="#00ADB5" stroke-linecap="round" stroke-linejoin="round"/>
<path d="M66.5632 141.392C64.8197 143.318 62.4132 147.091 63.317 149.983C63.6348 151 64.0964 151.685 64.6937 152.554C65.8958 154.302 67.7588 153.757 69.4487 153.3C70.6738 152.969 72.1294 151.926 72.5984 150.74C73.2457 149.103 71.8967 146.543 70.7695 145.416C69.511 144.157 68.514 142.626 67.1118 141.525C66.7387 141.231 66.4554 140.913 65.9688 141.022C65.4218 141.143 65.1965 141.667 65.9231 141.667" stroke="#00ADB5" stroke-linecap="round" stroke-linejoin="round"/>
<path d="M16.2301 21.7842C16.3864 23.5547 16.5976 25.3688 18.059 26.5595C19.4569 27.6986 20.7428 26.4242 21.3509 25.0558C21.9263 23.7613 21.8543 22.6979 21.5541 21.3473C21.3308 20.3421 21.6145 20.6546 20.6194 21.0526" stroke="#00ADB5" stroke-linecap="round" stroke-linejoin="round"/>
</svg>
