<svg width="27" height="15" viewBox="0 0 27 15" fill="none" xmlns="http://www.w3.org/2000/svg">
<path d="M4.11436 6.14435C2.87175 6.32817 1.40968 6.42516 1.11374 7.90488C0.884393 9.05161 0.9712 10.2318 1.65857 11.2267C2.83314 12.9267 4.57823 13.9189 6.67994 13.5687C8.55916 13.2555 11.1402 11.5526 11.1402 9.43772C11.1402 8.24509 10.2814 7.0449 9.57078 6.15248C8.8091 5.19595 8.15104 4.19019 7.19224 3.40801C5.89901 2.353 4.85434 2.24944 3.69151 3.49339C3.0552 4.1741 2.45344 5.10271 2.17493 5.99391C2.03765 6.43323 2.13834 6.78541 2.13834 7.22588C2.13834 7.8129 2.02942 6.94712 2.13834 6.65665" stroke="#00ADB5" stroke-linecap="round" stroke-linejoin="round"/>
<path d="M10.5547 9.50452C11.6122 10.4434 12.5085 11.2926 14.3783 11.3384C15.6876 11.3705 16.9963 11.0437 18.2231 10.692C19.1015 10.4402 21.9176 9.10645 19.6357 8.99863" stroke="#00ADB5" stroke-linecap="round" stroke-linejoin="round"/>
<path d="M21.4595 1.31411C20.0641 2.8551 18.138 5.87481 18.8614 8.18952C19.1157 9.00348 19.4852 9.55151 19.9632 10.2469C20.9253 11.6462 22.4164 11.2101 23.7689 10.8445C24.7494 10.5795 25.9144 9.74473 26.2897 8.79534C26.8078 7.48501 25.7282 5.43645 24.826 4.53429C23.8187 3.52702 23.0208 2.30158 21.8986 1.41982C21.6 1.1852 21.3732 0.93075 20.9837 1.0173C20.5459 1.11459 20.3657 1.53367 20.9472 1.53367" stroke="#00ADB5" stroke-linecap="round" stroke-linejoin="round"/>
</svg>
