<svg width="74" height="115" viewBox="0 0 74 115" fill="none" xmlns="http://www.w3.org/2000/svg">
<path d="M4.89124 7.42765C3.33866 7.65732 1.51186 7.77851 1.1421 9.62735C0.855539 11.0601 0.964001 12.5348 1.82284 13.7778C3.29041 15.9019 5.47082 17.1417 8.09682 16.704C10.4448 16.3127 13.6697 14.185 13.6697 11.5426C13.6697 10.0524 12.5967 8.55285 11.7088 7.43781C10.7571 6.24266 9.93489 4.98601 8.73691 4.00871C7.12108 2.69053 5.81581 2.56112 4.36291 4.11539C3.56787 4.9659 2.81599 6.12616 2.46801 7.23968C2.29648 7.78859 2.42229 8.22862 2.42229 8.77896C2.42229 9.51243 2.28619 8.43067 2.42229 8.06774" stroke="#00ADB5" stroke-linecap="round" stroke-linejoin="round"/>
<path d="M12.9382 11.6261C14.2594 12.7991 15.3793 13.8602 17.7156 13.9174C19.3515 13.9575 20.9866 13.5492 22.5195 13.1097C23.617 12.7951 27.1356 11.1287 24.2845 10.994" stroke="#00ADB5" stroke-linecap="round" stroke-linejoin="round"/>
<path d="M26.5632 1.39246C24.8197 3.31787 22.4132 7.09086 23.317 9.98299C23.6348 11 24.0964 11.6847 24.6937 12.5535C25.8958 14.302 27.7588 13.7571 29.4487 13.3003C30.6738 12.9692 32.1294 11.9262 32.5984 10.7399C33.2457 9.10273 31.8967 6.54314 30.7695 5.41594C29.511 4.1574 28.514 2.62627 27.1118 1.52455C26.7387 1.2314 26.4554 0.913475 25.9688 1.02161C25.4218 1.14318 25.1965 1.66679 25.9231 1.66679" stroke="#00ADB5" stroke-linecap="round" stroke-linejoin="round"/>
<path d="M16.2302 21.7842C16.3864 23.5547 16.5976 25.3688 18.059 26.5595C19.4569 27.6986 20.7428 26.4242 21.351 25.0558C21.9263 23.7613 21.8543 22.6979 21.5542 21.3473C21.3308 20.3421 21.6146 20.6546 20.6194 21.0526" stroke="#00ADB5" stroke-linecap="round" stroke-linejoin="round"/>
</svg>
