<svg width="148" height="141" viewBox="0 0 148 141" fill="none" xmlns="http://www.w3.org/2000/svg">
<path d="M9.07572 56.3443C16.2406 52.9307 22.0326 47.2867 27.8567 41.9644C32.4341 37.7813 37.2345 33.6479 42.2862 30.038C43.2829 29.3257 44.6912 27.8923 46.0386 28.5032C47.3739 29.1086 48.1437 30.7569 49.199 31.733C51.798 34.1367 54.1349 37.0741 56.2716 39.8989C58.6238 43.0084 55.0964 44.7295 52.9159 46.7654C50.439 49.078 48.0735 51.4628 45.3679 53.5035C42.7962 55.4432 40.7299 58.1166 38.3756 60.3125C34.7876 63.659 31.4317 67.2219 27.8541 70.5719C25.7244 72.566 23.2809 74.1941 21.23 76.2591C20.5114 76.9827 19.8467 77.9391 19.018 78.5416C18.3524 79.0255 17.4311 77.1646 17.1942 76.8141C15.3134 74.0323 12.3999 72.1294 10.5582 69.2197C9.40027 67.3903 8.62112 65.1326 7.23508 63.4619C6.57342 62.6643 4.91924 60.8692 5.64399 59.7041C6.38397 58.5146 8.48512 57.9447 9.6312 57.0928C10.5246 56.4287 11.6106 55.6088 12.6274 55.147C13.3664 54.8114 14.0918 54.2165 14.7527 53.7584C16.492 52.5527 14.6489 53.0681 13.4725 53.5161" stroke="#00ADB5" stroke-linecap="round" stroke-linejoin="round"/>
<path d="M10.1703 61.8056C14.5321 64.5059 18.4447 68.4135 21.8497 72.2673C21.936 72.3649 22.7647 72.9424 22.6384 73.1562C22.3944 73.5689 19.5634 71.7059 19.293 71.5193" stroke="#00ADB5" stroke-linecap="round" stroke-linejoin="round"/>
<path d="M14.4943 57.9018C18.0306 58.9144 20.1381 60.8412 22.9932 62.9027C24.265 63.8209 25.5604 64.6497 26.7019 65.7295C27.238 66.2365 27.6198 66.9043 28.115 67.4511C28.7939 68.2005 26.0218 66.581 25.6953 66.3945" stroke="#00ADB5" stroke-linecap="round" stroke-linejoin="round"/>
<path d="M19.6326 54.8756C22.1073 57.1089 24.5949 59.3115 27.1472 61.4551C28.1168 62.2694 29.2175 63.0168 30.0549 63.9759C31.5414 65.6785 29.5946 63.4692 28.9334 62.8455" stroke="#00ADB5" stroke-linecap="round" stroke-linejoin="round"/>
<path d="M23.0999 52.7466C24.9354 53.8625 26.8528 54.9439 28.407 56.4487C29.0446 57.066 29.5735 57.7935 30.2551 58.3653C31.0948 59.0698 31.8304 59.8916 32.6756 60.5763C33.8792 61.5513 34.0602 61.8359 32.6304 60.6122" stroke="#00ADB5" stroke-linecap="round" stroke-linejoin="round"/>
<path d="M27.5699 49.4695C29.595 51.0543 31.4692 52.6637 33.1626 54.5969C33.9125 55.4532 34.5169 56.4416 35.4687 57.0985C36.3407 57.7003 36.9519 57.8741 35.9311 56.8962" stroke="#00ADB5" stroke-linecap="round" stroke-linejoin="round"/>
<path d="M31.873 46.1297C33.656 47.4694 35.414 48.6925 36.8382 50.4181C37.4902 51.2081 38.005 52.116 38.7331 52.8447C40.2117 54.3242 39.1949 53.5784 38.1253 52.5741" stroke="#00ADB5" stroke-linecap="round" stroke-linejoin="round"/>
<path d="M35.8419 42.6643C38.3452 45.059 40.4417 47.8638 42.9495 50.2292C44.638 51.8218 42.2187 49.2697 41.8228 48.8163" stroke="#00ADB5" stroke-linecap="round" stroke-linejoin="round"/>
<path d="M40.6877 39.9094C42.7947 39.0491 44.9804 38.0236 46.1128 35.9214C46.425 35.3417 46.8273 34.837 46.9556 34.1837C47.1319 33.2865 47.0974 33.6714 46.4324 34.252" stroke="#00ADB5" stroke-linecap="round" stroke-linejoin="round"/>
<path d="M44.0802 42.8028C45.7507 41.2527 47.618 39.5595 48.8421 37.5918C49.4526 36.6103 50.6156 35.4124 48.9897 36.8319" stroke="#00ADB5" stroke-linecap="round" stroke-linejoin="round"/>
<path d="M49.4356 46.0519C50.9577 44.3979 52.312 42.8597 53.7131 41.1302C54.1657 40.5714 55.5447 39.8463 53.8856 40.2897" stroke="#00ADB5" stroke-linecap="round" stroke-linejoin="round"/>
<path d="M48.2247 45.2162C49.8178 43.851 51.6195 42.2615 52.882 40.5376C53.2188 40.0778 53.4778 39.5655 53.7862 39.0877C54.3028 38.2873 54.3355 38.5576 53.552 38.6398" stroke="#00ADB5" stroke-linecap="round" stroke-linejoin="round"/>
<path d="M14.4713 64.5636C22.4083 61.3394 24.3667 52.589 30.8347 47.6404C31.6215 47.0384 32.2606 46.3692 33.1782 45.9525C33.7917 45.6739 34.5493 45.5405 35.1078 45.184C35.4485 44.9665 38.2773 42.8054 36.3114 43.6982" stroke="#00ADB5" stroke-linecap="round" stroke-linejoin="round"/>
<path d="M10.7758 62.2235C11.6664 61.1404 12.4572 60.2134 13.5872 59.4301C13.7725 59.3017 14.0585 59.28 14.2109 59.1084C14.5128 58.7685 14.9703 58.2715 15.0867 57.8331C15.545 56.1064 17.7843 56.4256 18.9734 55.5599C20.1046 54.7362 21.1936 53.9024 22.3468 53.0887C23.6174 52.1921 24.2052 51.4059 25.2256 50.2571C26.1629 49.2018 27.0728 48.1344 28.065 47.1354C28.8766 46.3181 30.152 45.5748 30.6687 44.5288C31.2517 43.3483 32.7419 41.9972 34.0832 42.216C34.544 42.2911 37.9291 44.2527 35.7165 42.9985" stroke="#00ADB5" stroke-linecap="round" stroke-linejoin="round"/>
<path d="M118.689 106.008C119.579 104.925 120.37 103.998 121.5 103.214C121.685 103.086 121.971 103.064 122.124 102.893C122.426 102.553 122.883 102.056 122.999 101.617C123.458 99.8906 125.697 100.21 126.886 99.3441C128.017 98.5205 129.106 97.6867 130.26 96.8729C131.53 95.9764 132.118 95.1901 133.138 94.0413C134.076 92.9861 134.986 91.9187 135.978 90.9197C136.789 90.1024 138.065 89.3591 138.581 88.3131C139.165 87.1326 140.655 85.7814 141.996 86.0002C142.457 86.0754 145.842 88.037 143.629 86.7827" stroke="#00ADB5" stroke-linecap="round" stroke-linejoin="round"/>
<path d="M17.9581 66.4442C23.9224 63.298 27.2325 56.4388 31.261 51.2573C32.7448 49.3488 34.8653 48.0806 36.4185 46.2053C37.0828 45.4032 38.5499 44.5512 36.8436 44.565" stroke="#00ADB5" stroke-linecap="round" stroke-linejoin="round"/>
<path d="M20.0875 68.387C25.4918 65.0645 28.9523 58.8829 32.8843 53.9843C34.6732 51.7556 36.3997 49.4803 38.2106 47.2698C39.0362 46.262 40.4756 45.6324 38.6284 46.6643" stroke="#00ADB5" stroke-linecap="round" stroke-linejoin="round"/>
<path d="M22.2165 71.8543C25.5889 68.5656 28.3116 65.0168 31.0709 61.2127C32.7487 58.8996 34.1991 56.2996 36.1693 54.2168C37.2997 53.0218 38.17 51.6225 39.1963 50.3556C39.6097 49.8453 39.895 49.2506 40.3199 48.7445C41.2769 47.6045 40.6096 48.6359 39.9432 49.2543" stroke="#00ADB5" stroke-linecap="round" stroke-linejoin="round"/>
<path d="M23.0095 73.2955C24.6878 71.6516 27.1467 70.0692 28.2663 67.9367C28.6728 67.1625 29.6787 65.2932 30.3841 64.8195C31.3165 64.1932 31.7609 62.8609 32.4397 62.023C33.1465 61.1504 33.8384 60.2989 34.6054 59.469C35.3246 58.6907 35.5548 57.3248 36.4452 56.655C37.437 55.9089 37.9196 54.754 38.7107 53.8633C39.3955 53.0923 40.6991 52.2934 41.5487 51.7045C42.0194 51.3782 42.3481 50.9335 42.882 50.691C43.9641 50.1996 43.2618 50.4511 42.2713 50.4141" stroke="#00ADB5" stroke-linecap="round" stroke-linejoin="round"/>
<path d="M40.5517 40.5253C41.94 40.8913 43.6518 41.1427 44.9169 41.8993C45.7334 42.3875 46.4443 42.8777 44.9575 41.9886" stroke="#00ADB5" stroke-linecap="round" stroke-linejoin="round"/>
<path d="M41.9934 38.2079C43.9738 38.7252 45.3735 39.3052 46.9884 40.3581C48.0443 41.0466 47.8749 40.856 46.775 40.1933" stroke="#00ADB5" stroke-linecap="round" stroke-linejoin="round"/>
<path d="M44.3957 35.8698C46.0963 36.8262 47.7462 37.9131 49.5047 38.7458C50.539 39.2356 49.9962 39.2013 49.1979 38.8159" stroke="#00ADB5" stroke-linecap="round" stroke-linejoin="round"/>
<path d="M45.7642 34.0011C47.5523 34.8153 49.2007 35.6261 50.8471 36.6503C51.5979 37.1174 50.9166 37.1476 50.3471 36.7697" stroke="#00ADB5" stroke-linecap="round" stroke-linejoin="round"/>
<path d="M41.429 39.7112C42.7801 38.105 44.1353 36.5831 45.3653 34.9367C45.7148 34.469 47.8433 31.8647 46.9234 33.1976" stroke="#00ADB5" stroke-linecap="round" stroke-linejoin="round"/>
<path d="M42.8482 42.5309C44.606 40.9769 47.1393 38.9049 47.7066 36.5832C47.8736 35.8999 48.2358 35.217 48.7665 34.747C49.3047 34.2703 49.8674 34.055 49.0635 34.8585" stroke="#00ADB5" stroke-linecap="round" stroke-linejoin="round"/>
<path d="M41.4386 42.4782C43.313 40.4594 44.915 39.1026 45.9739 36.6157C46.2489 35.9698 46.5643 35.4345 47.0157 34.9262C47.4941 34.3876 48.1808 33.8833 47.257 34.8474" stroke="#00ADB5" stroke-linecap="round" stroke-linejoin="round"/>
<path d="M48.4028 43.4725C49.2659 44.0198 50.1313 44.5268 51.0283 44.9822C51.3988 45.1703 50.9405 44.8063 50.783 44.7472" stroke="#00ADB5" stroke-linecap="round" stroke-linejoin="round"/>
<path d="M50.0848 40.7688C50.1431 40.8183 53.5363 43.7257 52.9345 43.0773" stroke="#00ADB5" stroke-linecap="round" stroke-linejoin="round"/>
<path d="M52.1003 39.7148C52.8488 40.4349 55.1411 42.5411 54.334 41.8873" stroke="#00ADB5" stroke-linecap="round" stroke-linejoin="round"/>
<path d="M47.4 44.6208C48.6404 43.4656 51.3608 41.1771 52.0274 39.4015C52.29 38.7019 53.4932 37.8028 52.3617 38.7647" stroke="#00ADB5" stroke-linecap="round" stroke-linejoin="round"/>
<path d="M47.5565 44.9653C47.6743 45.0596 50.0468 47.615 50.5527 46.3759C50.811 45.7435 51.1473 44.9197 51.7808 44.5711C52.8922 43.9595 53.0973 42.0333 54.235 41.5166C55.5257 40.9305 55.4051 39.9475 54.2031 39.5988C53.7309 39.4619 54.1034 38.5313 53.613 38.6044C53.164 38.6713 52.9263 38.5056 52.4244 38.5976" stroke="#00ADB5" stroke-linecap="round" stroke-linejoin="round"/>
<path d="M40.3952 40.1808C41.2089 41.7357 41.3628 42.2995 42.6757 42.9479C43.0301 43.123 43.4927 42.8802 43.7616 43.0167C44.2938 43.2869 45.3455 43.2925 45.7427 42.8022C46.5414 41.8162 46.8354 41.1798 48.0591 40.5801C48.8311 40.2017 49.4521 39.309 49.8093 38.5689C50.202 37.7556 50.909 37.1427 51.3235 36.3262C51.5 35.9786 50.0753 35.0832 50.0624 34.4817C50.0588 34.3112 48.3671 34.3061 48.0856 34.1632C47.7446 33.9901 47.5882 33.746 47.4246 33.3857C47.1855 32.8593 46.7617 33.5128 46.1193 33.5627" stroke="#00ADB5" stroke-linecap="round" stroke-linejoin="round"/>
<path d="M12.2175 59.9059C14.1394 60.6364 15.8154 61.5783 17.5458 62.6208C19.0481 63.5258 20.7458 64.008 22.2385 64.8852C23.3012 65.5097 24.4041 66.9355 25.1884 67.8719C25.4497 68.1839 25.6449 68.4759 25.8302 68.8275C26.2555 69.6343 25.8131 67.6839 25.768 67.4701" stroke="#00ADB5" stroke-linecap="round" stroke-linejoin="round"/>
<path d="M30.7769 45.2417C31.3098 45.8013 33.468 48.8906 33.0423 46.5685" stroke="#00ADB5" stroke-linecap="round" stroke-linejoin="round"/>
</svg>
