<svg width="148" height="107" viewBox="0 0 148 107" fill="none" xmlns="http://www.w3.org/2000/svg">
<path d="M9.07572 55.3766C16.2406 51.963 22.0326 46.3191 27.8567 40.9968C32.4341 36.8137 37.2345 32.6802 42.2862 29.0704C43.2829 28.3581 44.6912 26.9246 46.0386 27.5356C47.3739 28.141 48.1437 29.7893 49.199 30.7654C51.798 33.1691 54.1349 36.1065 56.2716 38.9312C58.6238 42.0408 55.0964 43.7618 52.9159 45.7977C50.439 48.1103 48.0735 50.4952 45.3679 52.5358C42.7962 54.4755 40.7299 57.149 38.3756 59.3448C34.7876 62.6914 31.4317 66.2542 27.8541 69.6042C25.7244 71.5984 23.2809 73.2264 21.23 75.2915C20.5114 76.015 19.8467 76.9714 19.018 77.574C18.3524 78.0578 17.4311 76.1969 17.1942 75.8464C15.3134 73.0646 12.3999 71.1617 10.5582 68.2521C9.40027 66.4227 8.62112 64.1649 7.23508 62.4942C6.57342 61.6967 4.91924 59.9015 5.64399 58.7365C6.38397 57.547 8.48512 56.9771 9.6312 56.1251C10.5246 55.461 11.6106 54.6411 12.6274 54.1793C13.3664 53.8437 14.0918 53.2489 14.7527 52.7908C16.492 51.5851 14.6489 52.1004 13.4725 52.5484" stroke="#00ADB5" stroke-linecap="round" stroke-linejoin="round"/>
<path d="M10.1703 60.838C14.5321 63.5382 18.4447 67.4458 21.8497 71.2996C21.936 71.3972 22.7647 71.9748 22.6384 72.1885C22.3944 72.6013 19.5634 70.7382 19.293 70.5516" stroke="#00ADB5" stroke-linecap="round" stroke-linejoin="round"/>
<path d="M14.4943 56.9342C18.0306 57.9468 20.1381 59.8735 22.9932 61.935C24.265 62.8533 25.5604 63.682 26.7019 64.7618C27.238 65.2689 27.6198 65.9366 28.115 66.4834C28.7939 67.2328 26.0218 65.6134 25.6953 65.4268" stroke="#00ADB5" stroke-linecap="round" stroke-linejoin="round"/>
<path d="M19.6326 53.9079C22.1073 56.1413 24.5949 58.3438 27.1472 60.4874C28.1168 61.3017 29.2175 62.0491 30.0549 63.0082C31.5414 64.7109 29.5946 62.5015 28.9334 61.8779" stroke="#00ADB5" stroke-linecap="round" stroke-linejoin="round"/>
<path d="M23.0999 51.779C24.9354 52.8949 26.8528 53.9763 28.407 55.4811C29.0445 56.0983 29.5735 56.8259 30.2551 57.3977C31.0948 58.1021 31.8304 58.9239 32.6756 59.6086C33.8792 60.5836 34.0602 60.8683 32.6304 59.6446" stroke="#00ADB5" stroke-linecap="round" stroke-linejoin="round"/>
<path d="M27.5699 48.5018C29.595 50.0866 31.4692 51.696 33.1626 53.6293C33.9125 54.4855 34.5169 55.4739 35.4687 56.1308C36.3407 56.7326 36.9519 56.9065 35.9311 55.9285" stroke="#00ADB5" stroke-linecap="round" stroke-linejoin="round"/>
<path d="M31.873 45.162C33.656 46.5018 35.414 47.7249 36.8382 49.4505C37.4902 50.2405 38.005 51.1484 38.7331 51.877C40.2117 53.3566 39.1949 52.6107 38.1253 51.6065" stroke="#00ADB5" stroke-linecap="round" stroke-linejoin="round"/>
<path d="M35.8419 41.6966C38.3452 44.0913 40.4417 46.8962 42.9495 49.2615C44.638 50.8542 42.2187 48.302 41.8228 47.8486" stroke="#00ADB5" stroke-linecap="round" stroke-linejoin="round"/>
<path d="M40.6877 38.9417C42.7947 38.0814 44.9804 37.056 46.1128 34.9537C46.425 34.374 46.8273 33.8694 46.9556 33.2161C47.1319 32.3189 47.0974 32.7037 46.4324 33.2843" stroke="#00ADB5" stroke-linecap="round" stroke-linejoin="round"/>
<path d="M44.0802 41.8352C45.7507 40.2851 47.618 38.5918 48.8421 36.6241C49.4526 35.6427 50.6156 34.4447 48.9897 35.8643" stroke="#00ADB5" stroke-linecap="round" stroke-linejoin="round"/>
<path d="M49.4356 45.0843C50.9576 43.4303 52.312 41.892 53.713 40.1625C54.1657 39.6037 55.5447 38.8786 53.8856 39.322" stroke="#00ADB5" stroke-linecap="round" stroke-linejoin="round"/>
<path d="M48.2247 44.2485C49.8178 42.8833 51.6195 41.2938 52.882 39.57C53.2188 39.1101 53.4779 38.5979 53.7863 38.12C54.3028 37.3197 54.3355 37.5899 53.552 37.6721" stroke="#00ADB5" stroke-linecap="round" stroke-linejoin="round"/>
<path d="M14.4713 63.5959C22.4083 60.3717 24.3667 51.6214 30.8347 46.6727C31.6215 46.0707 32.2606 45.4016 33.1782 44.9849C33.7917 44.7062 34.5493 44.5729 35.1078 44.2163C35.4485 43.9988 38.2773 41.8377 36.3114 42.7305" stroke="#00ADB5" stroke-linecap="round" stroke-linejoin="round"/>
<path d="M10.7758 61.2558C11.6664 60.1728 12.4572 59.2458 13.5872 58.4625C13.7725 58.334 14.0585 58.3123 14.2109 58.1407C14.5128 57.8008 14.9703 57.3039 15.0867 56.8654C15.545 55.1387 17.7843 55.458 18.9734 54.5922C20.1046 53.7686 21.1936 52.9348 22.3468 52.121C23.6174 51.2244 24.2052 50.4382 25.2256 49.2894C26.1629 48.2342 27.0728 47.1668 28.065 46.1678C28.8766 45.3505 30.152 44.6072 30.6687 43.5611C31.2517 42.3806 32.7419 41.0295 34.0832 41.2483C34.544 41.3235 37.9291 43.2851 35.7165 42.0308" stroke="#00ADB5" stroke-linecap="round" stroke-linejoin="round"/>
<path d="M118.689 105.04C119.579 103.957 120.37 103.03 121.5 102.247C121.685 102.118 121.971 102.097 122.124 101.925C122.426 101.585 122.883 101.088 122.999 100.65C123.458 98.923 125.697 99.2423 126.886 98.3765C128.017 97.5528 129.106 96.7191 130.26 95.9053C131.53 95.0087 132.118 94.2225 133.138 93.0737C134.076 92.0184 134.986 90.951 135.978 89.952C136.789 89.1347 138.065 88.3914 138.581 87.3454C139.165 86.1649 140.655 84.8138 141.996 85.0326C142.457 85.1077 145.842 87.0693 143.629 85.8151" stroke="#00ADB5" stroke-linecap="round" stroke-linejoin="round"/>
<path d="M17.9581 65.4765C23.9224 62.3304 27.2325 55.4711 31.261 50.2897C32.7448 48.3812 34.8653 47.113 36.4185 45.2377C37.0828 44.4356 38.5499 43.5836 36.8436 43.5974" stroke="#00ADB5" stroke-linecap="round" stroke-linejoin="round"/>
<path d="M20.0875 67.4193C25.4918 64.0968 28.9523 57.9153 32.8843 53.0166C34.6732 50.788 36.3997 48.5126 38.2106 46.3021C39.0362 45.2944 40.4756 44.6648 38.6284 45.6967" stroke="#00ADB5" stroke-linecap="round" stroke-linejoin="round"/>
<path d="M22.2165 70.8866C25.5889 67.5979 28.3116 64.0491 31.0709 60.245C32.7487 57.9319 34.1991 55.3319 36.1693 53.2492C37.2997 52.0541 38.17 50.6548 39.1963 49.388C39.6097 48.8776 39.895 48.2829 40.3199 47.7769C41.2769 46.6369 40.6096 47.6682 39.9432 48.2866" stroke="#00ADB5" stroke-linecap="round" stroke-linejoin="round"/>
<path d="M23.0095 72.3279C24.6878 70.6839 27.1467 69.1016 28.2663 66.969C28.6728 66.1948 29.6787 64.3256 30.3841 63.8518C31.3165 63.2255 31.7609 61.8932 32.4397 61.0553C33.1465 60.1828 33.8384 59.3313 34.6054 58.5013C35.3246 57.7231 35.5548 56.3572 36.4452 55.6874C37.437 54.9413 37.9196 53.7863 38.7107 52.8956C39.3955 52.1247 40.6991 51.3258 41.5487 50.7369C42.0194 50.4106 42.3481 49.9658 42.882 49.7233C43.9641 49.2319 43.2618 49.4835 42.2713 49.4464" stroke="#00ADB5" stroke-linecap="round" stroke-linejoin="round"/>
<path d="M40.5517 39.5577C41.94 39.9237 43.6518 40.175 44.9169 40.9316C45.7334 41.4199 46.4443 41.9101 44.9575 41.021" stroke="#00ADB5" stroke-linecap="round" stroke-linejoin="round"/>
<path d="M41.9934 37.2402C43.9738 37.7576 45.3735 38.3376 46.9884 39.3905C48.0443 40.0789 47.8749 39.8883 46.775 39.2257" stroke="#00ADB5" stroke-linecap="round" stroke-linejoin="round"/>
<path d="M44.3957 34.9021C46.0963 35.8585 47.7462 36.9454 49.5047 37.7781C50.539 38.2679 49.9962 38.2337 49.1979 37.8482" stroke="#00ADB5" stroke-linecap="round" stroke-linejoin="round"/>
<path d="M45.7642 33.0335C47.5523 33.8477 49.2007 34.6585 50.8471 35.6827C51.5979 36.1497 50.9166 36.1799 50.3471 35.802" stroke="#00ADB5" stroke-linecap="round" stroke-linejoin="round"/>
<path d="M41.429 38.7436C42.7801 37.1374 44.1353 35.6154 45.3653 33.969C45.7148 33.5013 47.8433 30.897 46.9234 32.2299" stroke="#00ADB5" stroke-linecap="round" stroke-linejoin="round"/>
<path d="M42.8482 41.5633C44.606 40.0093 47.1393 37.9373 47.7066 35.6156C47.8736 34.9323 48.2358 34.2494 48.7665 33.7794C49.3047 33.3027 49.8674 33.0874 49.0635 33.8908" stroke="#00ADB5" stroke-linecap="round" stroke-linejoin="round"/>
<path d="M41.4386 41.5106C43.313 39.4918 44.9149 38.1349 45.9739 35.648C46.2489 35.0021 46.5642 34.4668 47.0157 33.9586C47.4941 33.42 48.1808 32.9156 47.257 33.8798" stroke="#00ADB5" stroke-linecap="round" stroke-linejoin="round"/>
<path d="M48.4028 42.5049C49.2659 43.0521 50.1313 43.5592 51.0283 44.0146C51.3988 44.2026 50.9405 43.8387 50.783 43.7795" stroke="#00ADB5" stroke-linecap="round" stroke-linejoin="round"/>
<path d="M50.0848 39.8011C50.1431 39.8507 53.5363 42.7581 52.9345 42.1096" stroke="#00ADB5" stroke-linecap="round" stroke-linejoin="round"/>
<path d="M52.1003 38.7471C52.8488 39.4673 55.1411 41.5735 54.334 40.9197" stroke="#00ADB5" stroke-linecap="round" stroke-linejoin="round"/>
<path d="M47.4 43.6531C48.6404 42.498 51.3608 40.2095 52.0274 38.4339C52.29 37.7342 53.4932 36.8351 52.3617 37.7971" stroke="#00ADB5" stroke-linecap="round" stroke-linejoin="round"/>
<path d="M47.5565 43.9977C47.6743 44.092 50.0468 46.6473 50.5527 45.4083C50.811 44.7758 51.1473 43.9521 51.7808 43.6035C52.8922 42.9919 53.0973 41.0657 54.235 40.549C55.5256 39.9628 55.4051 38.9799 54.2031 38.6312C53.7309 38.4942 54.1034 37.5636 53.6129 37.6367C53.164 37.7037 52.9263 37.5379 52.4244 37.63" stroke="#00ADB5" stroke-linecap="round" stroke-linejoin="round"/>
<path d="M40.3952 39.2131C41.2089 40.768 41.3628 41.3318 42.6757 41.9803C43.0301 42.1553 43.4927 41.9126 43.7616 42.0491C44.2938 42.3193 45.3455 42.3249 45.7427 41.8346C46.5414 40.8486 46.8354 40.2122 48.0591 39.6124C48.8311 39.2341 49.4521 38.3413 49.8093 37.6013C50.202 36.7879 50.909 36.1751 51.3235 35.3586C51.5 35.011 50.0753 34.1155 50.0624 33.5141C50.0588 33.3436 48.3671 33.3384 48.0856 33.1956C47.7446 33.0224 47.5882 32.7784 47.4246 32.418C47.1855 31.8917 46.7616 32.5452 46.1193 32.5951" stroke="#00ADB5" stroke-linecap="round" stroke-linejoin="round"/>
<path d="M12.2175 58.9383C14.1394 59.6688 15.8154 60.6107 17.5458 61.6531C19.0481 62.5582 20.7457 63.0404 22.2385 63.9176C23.3012 64.5421 24.4041 65.9678 25.1884 66.9043C25.4497 67.2163 25.6449 67.5082 25.8302 67.8599C26.2555 68.6667 25.8131 66.7162 25.768 66.5024" stroke="#00ADB5" stroke-linecap="round" stroke-linejoin="round"/>
<path d="M30.7769 44.2741C31.3098 44.8337 33.468 47.923 33.0423 45.6009" stroke="#00ADB5" stroke-linecap="round" stroke-linejoin="round"/>
</svg>
