<svg width="42" height="35" viewBox="0 0 42 35" fill="none" xmlns="http://www.w3.org/2000/svg">
<path d="M5.19048 23.5238C7.41736 18.2729 6.5053 13.6975 6.5053 8.25575C6.5053 7.19716 6.31323 3.97257 7.42568 3.39545C9.18009 2.48528 10.8196 1.87795 12.8895 1.87795C14.2657 1.87795 15.6484 1.91759 17.0239 1.87795C18.3997 1.8383 19.7323 1.27866 21.0926 1.11204C23.6235 0.802024 26.2558 1.23372 28.7551 1.23372C30.7394 1.23372 32.7923 1.49141 34.701 1.49141C35.0399 1.49141 36.4214 1.65299 36.644 1.84931C37.3253 2.45017 37.1302 3.41375 37.6667 3.93946" stroke="#00ADB5" stroke-linecap="round" stroke-linejoin="round"/>
<path d="M37.5357 4.40475C37.6223 5.9543 37.6548 8.12874 38.2923 9.64285C38.7055 10.624 38.3761 11.9299 38.4597 12.9749C38.6201 14.9809 38.3214 16.9361 38.3214 18.8823C38.3214 21.493 38.4524 24.0702 38.4524 26.6667C38.4524 28.8952 36.2749 28.5221 34.5529 28.209C33.0653 27.9385 31.069 28.4809 29.5185 28.5C26.5274 28.5369 23.5223 28.7619 20.5265 28.7619C18.0244 28.7619 16.1665 28.0353 13.8624 27.1614C12.6321 26.6947 11.8884 26.7976 10.5668 26.7976C9.31514 26.7976 8.28583 26.6019 7.03109 26.994C6.297 27.2234 4.98237 27.0254 4.56482 26.2738C4.06414 25.3726 5.05953 24.9818 5.05953 24.244C5.05953 23.6246 4.98167 21.8533 5.19048 23.5238" stroke="#00ADB5" stroke-linecap="round" stroke-linejoin="round"/>
<path d="M20.119 7.80952C20.119 7.80952 20.6429 8.07142 21.1667 8.59523C21.6905 8.98813 22.7931 8.7917 23.7202 8.7917C24.2081 8.7917 24.7233 8.41138 25.1607 8.21697C26.0469 7.82312 25.5183 8.5639 25.3062 8.98813C25.0714 9.45773 25.3396 10.3308 25.7645 10.625C26.4657 11.1105 27.1594 10.6915 27.8452 10.3486C28.1299 10.2062 28.0518 10.1402 28.1399 10.334C28.2594 10.5969 28.2381 10.9784 28.2381 11.2652C28.2381 11.9181 28.1952 13.0027 27.8452 13.5714C27.3848 14.3196 26.9196 14.8039 26.1792 15.3539C25.4478 15.8972 24.4815 16.8453 23.5093 16.8453C21.6094 16.8453 19.5929 16.4313 18.6422 14.5827C18.2392 13.7991 17.5 13.1576 17.5 12.2619C17.5 11.5146 17.2527 10.6191 17.5 9.90476C17.7997 9.03886 18.5476 8.21697 18.2857 8.21697C18.4193 8.25512 19.5952 7.54762 20.119 7.80952Z" stroke="#00ADB5" stroke-linecap="round" stroke-linejoin="round"/>
<path d="M22.2798 7.35119C23.0165 7.07851 24.6992 6.50721 25.0952 5.61608C25.4013 4.92737 24.3896 4.79762 23.8512 4.79762C23.1982 4.79762 22.4244 5.7001 22.2507 6.27084C22.1541 6.58822 22.0623 6.91305 21.9669 7.23479C21.921 7.38989 21.9823 7.50233 22.0142 7.64584C22.0385 7.75514 23.0376 7.2306 23 7.08036" stroke="#00ADB5" stroke-linecap="round" stroke-linejoin="round"/>
<path d="M35.2448 22.0861L6.51827 22.717C3.45121 22.7844 1 25.29 1 28.3578C1 31.4739 3.52608 34 6.64216 34H35.3757C38.666 34 41.3333 31.3327 41.3333 28.0423C41.3333 24.7008 38.5856 22.0127 35.2448 22.0861Z" fill="#00ADB5" stroke="#00ADB5"/>
<path d="M12.8691 22.5588C13.304 23.2332 13.6795 24.0425 14.1785 24.6663C14.4295 24.9801 14.3892 24.9163 14.8758 24.736C15.6881 24.4352 16.6085 24.6508 17.4559 24.6508C18.1999 24.6508 19.065 24.2624 19.7881 24.4571C20.6258 24.6827 21.6134 24.2521 22.438 24.2324C23.4315 24.2088 24.3786 24.3022 25.3667 24.3022C25.9625 24.3022 26.5432 23.9535 27.0946 23.9535C27.4144 23.9535 28.3263 24.2071 28.3497 23.6203C28.3612 23.3345 28.4892 23.0569 28.4892 22.768C28.4892 22.3773 28.2554 22.5465 27.8616 22.3496" stroke="#00ADB5" stroke-linecap="round" stroke-linejoin="round"/>
</svg>
