<svg width="27" height="21" viewBox="0 0 27 21" fill="none" xmlns="http://www.w3.org/2000/svg">
<path d="M5.13415 2.40466C8.9384 2.56508 13.0691 2.33165 16.8578 1.86454C18.8852 1.6146 20.93 1.56126 22.9341 1.25294C23.2166 1.20949 24.1178 0.778346 24.2606 1.14968C24.486 1.7358 24.5337 2.57305 24.5068 3.191C24.4288 4.9861 24.65 6.94481 25.039 8.69542C25.3476 10.084 25.5791 11.2415 25.5791 12.6669C25.5791 13.4464 25.9941 14.7283 25.5156 15.3436C24.1813 17.0591 21.2548 17.7599 19.2248 18.2745C16.2419 19.0307 13.2917 19.8156 10.2096 19.9822C8.29789 20.0856 6.45842 19.7042 4.5702 19.7042C2.83093 19.7042 2.99636 19.6686 2.38591 18.0204C1.78466 16.397 1.70283 14.9352 1.70283 13.1911C1.70283 12.2832 1.30341 11.2893 1.05945 10.4111C0.874676 9.74588 1.17096 8.93153 1.26597 8.2665C1.36561 7.569 2.41165 5.96808 2.06026 5.33558C1.71584 4.71563 1.53316 3.65456 2.09997 3.08775C2.56278 2.62494 9.37852 2.06704 3.13254 3.40546" stroke="#00ADB5" stroke-linecap="round" stroke-linejoin="round"/>
<path d="M1.98875 4.12033C2.78222 5.18654 3.41123 6.44962 4.21276 7.48016C4.47916 7.82267 5.1164 8.11937 5.2771 8.48096C5.71219 9.45991 8.21719 10.32 9.13734 10.9115C10.176 11.5792 12.3132 14.5268 13.7839 13.0561C16.5485 10.2914 19.3943 7.58864 22.1478 4.83518C22.668 4.31495 22.8483 3.62632 23.3233 3.15129C24.7694 1.70524 22.3624 1.83278 21.5759 1.83278" stroke="#00ADB5" stroke-linecap="round" stroke-linejoin="round"/>
</svg>
