<svg width="33" height="19" viewBox="0 0 33 19" fill="none" xmlns="http://www.w3.org/2000/svg">
<path d="M7.66608 3.25817C12.2471 2.7833 16.8068 1.99498 21.3817 1.61374C23.3991 1.44562 25.344 1.41341 27.3631 1.38786C27.7574 1.38286 30.4499 0.678736 30.661 1.18004C30.9206 1.7966 30.7251 2.95861 30.8101 3.62861C30.969 4.88226 31.2476 6.07915 31.3477 7.34213C31.4636 8.80605 32.3482 12.1162 30.6429 12.9982C29.5891 13.5433 28.3304 13.9807 27.1824 14.2677C25.7707 14.6206 24.352 15.2413 22.9177 15.4558C21.0514 15.7351 19.1394 16.2212 17.2661 16.3503C15.9851 16.4387 14.7958 16.6622 13.5752 17.0641C11.7699 17.6586 9.65421 17.7328 7.78354 17.7328C6.99566 17.7328 6.2194 17.803 5.43435 17.8141C4.89711 17.8216 4.20405 18.1347 3.6815 17.9315C2.56025 17.4955 2.53222 15.1816 2.33072 14.2361C1.90523 12.2396 1.39952 10.2625 1.16065 8.23211C1.07691 7.52038 0.788645 6.20503 1.27811 5.57573C2.21258 4.37426 4.02187 4.37524 5.38466 3.94937C5.96353 3.76847 6.48066 3.49811 7.05167 3.33497C8.34711 2.96484 6.62934 3.06454 6.03972 3.17685" stroke="#00ADB5" stroke-linecap="round" stroke-linejoin="round"/>
<path d="M2.62437 7.08008C5.96091 6.58578 9.40498 6.01475 14.8221 4.31527C16.1476 3.89942 17.8603 3.75601 19.2494 3.66021C20.5254 3.57221 21.7814 3.31848 23.0352 3.49758C24.5534 3.71447 26.2613 2.61236 27.7155 3.33946C29.2549 4.1092 29.4593 6.67035 29.4593 8.17336C29.4593 8.88167 29.7845 9.56186 29.7845 10.2696C29.7845 10.7741 29.6185 11.952 29.134 12.2212C28.2607 12.7063 27.3724 13.4563 26.3647 13.6578C25.3738 13.856 24.0939 13.3155 23.1933 13.6307C21.3602 14.2723 19.3435 14.5875 17.4242 14.8008C15.5393 15.0102 13.8547 15.0694 12.0392 15.7178C10.3953 16.3049 8.63447 16.1119 6.93422 16.3548C6.46354 16.4221 5.37454 17.0168 5.08198 16.4316C4.81498 15.8976 4.8799 15.2654 4.63925 14.724C4.34679 14.0659 4.02673 12.6823 3.44207 12.2438C2.93581 11.8641 2.67423 10.9304 2.70569 10.3328C2.73486 9.77848 2.62437 9.32306 2.62437 8.78776C2.62437 8.57349 2.50909 8.37067 2.46625 8.17787C2.40805 7.91596 2.69076 7.78005 2.61985 7.53185C2.52769 7.20928 3.92497 7.69974 4.16941 7.9791C4.50877 8.36694 4.65063 8.93846 4.96452 9.35698C5.32004 9.83102 5.80917 10.5488 6.03972 11.0827C6.464 12.0653 6.8529 13.1099 6.8529 14.1909C6.8529 14.7477 6.96824 15.4984 7.66608 15.5371C8.07359 15.5598 8.18007 16.2322 8.2353 15.2932C8.23957 15.2207 8.21384 14.7033 8.39794 14.8414C8.50662 14.9229 8.20637 13.4772 8.1585 13.3416C7.83813 12.4338 7.83065 11.2974 7.37695 10.4548C6.99135 9.73867 5.87894 7.44868 6.59087 6.73674C6.66837 6.65924 7.10449 6.76045 7.30015 6.67349C7.47806 6.59442 7.63729 6.2669 7.78805 6.2669C7.92416 6.2669 8.39928 6.24489 8.47926 6.14493C8.58723 6.00996 8.65145 6.54791 8.65996 6.59218C8.73467 6.98065 8.9594 7.35582 9.08914 7.73063C9.71189 9.52969 10.2682 11.0231 10.2682 12.9711C10.2682 13.7674 10.2766 14.4896 10.6568 15.2119C10.7916 15.4681 11.3177 15.4065 11.3073 15.3926C11.1975 15.2462 11.6741 15.2183 11.732 15.0447C12.0236 14.1698 11.4446 13.2233 11.1537 12.4154C10.7228 11.2184 10.5122 9.92152 10.1463 8.70192C9.97005 8.1145 9.86506 7.49056 9.9475 6.87227C9.97887 6.63696 10.0534 6.05487 10.2682 5.92356C11.014 5.46779 11.0946 6.00981 11.5874 6.77288C12.5911 8.32706 13.3019 9.89095 14.0179 11.6068C14.4251 12.5824 14.8988 13.6725 15.1473 14.7059C15.219 15.0041 15.516 15.8049 15.8385 15.4106C16.3598 14.7735 15.8671 13.6221 15.5901 12.9756C14.6785 10.8486 13.608 9.04561 14.2122 6.69608C14.3951 5.98465 14.5712 5.3034 14.8221 4.61344C14.9576 4.24066 15.5895 5.39553 15.5991 5.41758C15.9992 6.33641 16.3826 7.29358 16.6517 8.25919C17.0595 9.72253 17.8012 10.9649 18.6485 12.2076C19.316 13.1867 20.2508 13.1259 20.1755 11.6565C20.0783 9.76093 18.5246 8.21302 18.4814 6.2669C18.4733 5.90356 18.233 5.14186 18.5265 4.84836C19.0147 4.36024 19.629 5.26015 19.8547 5.57118C20.482 6.43564 20.9597 7.25322 21.323 8.26823C21.6751 9.25224 21.7842 10.32 22.24 11.2634C22.5563 11.918 23.2432 13.0616 23.9297 13.4048C24.2529 13.5664 24.3204 12.7408 24.3362 12.6278C24.4822 11.5876 24.0661 10.7923 23.6405 9.872C23.113 8.73106 22.2019 7.00945 22.5111 5.68413C22.7175 4.79952 23.0782 4.75578 23.7309 5.38596C24.8205 6.43798 25.3416 8.75641 25.8768 10.1611C26.1288 10.8228 26.3347 11.5451 27.0197 11.8778C27.7732 12.2438 28.0221 11.1015 27.9775 10.5858C27.8479 9.08871 26.721 7.74748 26.062 6.42954C25.7362 5.77797 24.999 4.95525 25.5108 4.21589C25.559 4.14637 29.4185 4.36832 26.6809 5.57118C24.0539 6.72548 20.9487 7.25693 18.1516 7.8526C16.6519 8.17197 15.2174 8.55606 13.774 9.07689C12.6011 9.50009 11.449 9.48777 10.2366 9.65063C8.82649 9.84005 7.65839 10.5806 6.29271 10.8568C5.56234 11.0046 4.75187 11.0844 4.08809 11.4532C3.88348 11.5669 3.35069 12.1236 3.35623 12.3838C3.4089 14.8592 7.55661 13.35 8.84067 12.9801C12.3555 11.9679 15.9945 11.2016 19.4301 9.92169C20.9152 9.36842 22.2566 8.45413 23.7986 8.06041C24.5871 7.8591 29.032 7.54172 27.4534 9.55576C26.0987 11.2842 23.4426 11.1669 21.472 11.5706C18.6265 12.1536 15.9942 12.4299 13.2499 13.459C12.2302 13.8414 11.2557 14.1856 10.2637 14.6336C9.49657 14.9801 8.72004 14.8287 7.91003 14.9047C7.72383 14.9221 4.84627 15.2254 5.56988 15.9257C7.3336 17.6325 10.702 15.7445 12.4819 15.1215C13.7849 14.6655 15.1714 14.5319 16.4936 14.1457C17.807 13.762 19.0809 13.2552 20.3878 12.8537C22.443 12.2222 24.462 11.1986 26.5318 10.6761C26.9372 10.5738 27.4903 10.4386 27.9097 10.4548C28.0126 10.4587 28.2032 10.4141 27.9459 10.4277C27.0458 10.475 26.1207 10.6889 25.2307 10.8207" stroke="#00ADB5" stroke-linecap="round" stroke-linejoin="round"/>
</svg>
