<svg width="5" height="9" viewBox="0 0 5 9" fill="none" xmlns="http://www.w3.org/2000/svg">
<path d="M4.26493 1.18018C3.33548 2.20257 -1.73836 6.67072 1.7317 8.09029C2.56393 8.43075 3.65825 7.31024 4.01161 6.64071C4.75442 5.23329 4.86132 2.37567 2.49167 2.71419C0.863055 2.94685 0.738849 7.20081 2.18205 7.14736C4.62611 7.05684 3.82663 1.87786 2.6324 4.37487C0.464217 8.90835 4.32727 6.57549 2.94202 5.03633C2.25474 4.27268 1.05145 10.1752 3.3783 7.35846C5.71011 4.53574 1.32369 4.40339 2.29464 7.31624C3.06081 9.61475 4.08847 2.69886 2.37908 6.73923C0.894894 10.2473 3.70199 5.99589 2.85758 6.30295C1.25224 6.88671 0.833947 9.93445 2.37908 6.7533C3.36987 4.71343 -0.0948712 7.73845 0.859135 7.73845C1.76238 7.73845 3.42905 4.66056 1.6754 5.99333C-0.107927 7.34866 2.77283 5.29807 2.98424 4.34672C3.09895 3.83052 1.37805 6.29633 2.49167 4.41709C3.07235 3.43719 2.35938 4.34141 2.11168 4.72671C1.52138 5.64495 2.20212 4.10816 2.35093 4.00896C2.63875 3.81708 2.00421 4.63466 1.98502 4.98003C1.93198 5.93469 2.19677 4.46948 2.23834 4.22006" stroke="#00ADB5" stroke-linecap="round" stroke-linejoin="round"/>
</svg>
