<svg width="22" height="20" viewBox="0 0 22 20" fill="none" xmlns="http://www.w3.org/2000/svg">
<path d="M7.77089 9.05005C8.53751 6.85778 9.11327 4.44641 10.0508 2.33697C10.1335 2.15089 10.6372 1.05627 10.8108 1.05627C11.5621 1.05627 11.4425 5.82714 11.627 6.65755C12.3281 9.81241 11.7868 9.04716 14.104 7.07975C15.2501 6.10662 22.8599 2.73075 19.9304 5.86943C18.1301 7.79837 15.677 9.74262 13.2455 10.8233C12.8601 10.9946 14.0946 11.4378 14.301 11.6959C15.0147 12.5879 15.6084 13.5593 16.2572 14.4965C17.9508 16.9427 14.7547 15.277 13.5833 14.7498C12.4436 14.237 10.9935 13.9562 10.0508 13.1032C9.8887 12.9566 9.29083 12.0714 9.29083 12.3433C9.29083 15.8332 8.77515 16.5308 6.25094 18.6764C4.48543 20.177 5.07986 14.8323 5.18135 14.3136C5.38849 13.2549 5.76395 12.3389 6.12428 11.33C6.26893 10.9249 7.12806 10.1226 6.7013 10.1759C4.42127 10.4609 6.83964 13.0542 3.45031 10.9359C-0.63528 8.38241 0.783115 3.65817 5.2095 7.13605C6.48346 8.13701 6.3043 9.62622 7.88347 10.0774C9.79029 10.6222 8.1673 9.0829 7.51756 7.78343" stroke="#00ADB5" stroke-linecap="round" stroke-linejoin="round"/>
</svg>
