<svg width="24" height="28" viewBox="0 0 24 28" fill="none" xmlns="http://www.w3.org/2000/svg">
<path d="M5.78393 23.5948C5.90875 21.6308 5.80269 20.7482 3.95201 20.0794C3.25987 19.8292 2.22499 19.9617 1.70511 20.4968C0.644742 21.5882 0.98336 22.8376 1.4116 24.138C2.6314 27.8422 8.61572 27.9378 10.4093 24.5001C11.281 22.8293 11.7275 20.7604 12.3424 18.9779C13.1055 16.7662 14.347 14.7197 15.0751 12.4901C15.8263 10.19 16.353 7.83845 17.1702 5.55974C17.5439 4.51783 17.8576 2.27073 18.7289 1.50109C20.6388 -0.186161 22.3237 2.7966 22.4484 4.40803C22.5689 5.96439 23 7.65979 23 9.16072C23 9.7275 22.7705 10.28 22.5445 10.7852C22.3597 11.1984 21.5295 10.9982 21.4565 10.5991C21.2431 9.43235 22.7602 7.67841 20.4495 7.93357" stroke="#00ADB5" stroke-linecap="round" stroke-linejoin="round"/>
</svg>
