<svg width="14" height="18" viewBox="0 0 14 18" fill="none" xmlns="http://www.w3.org/2000/svg">
<path d="M9.88839 7.1564C9.69278 7.44613 4.783 15.4033 6.96109 12.6029C7.60052 11.7807 9.16122 9.22681 7.34108 11.3503C4.03187 15.2111 11.5669 7.4266 6.00409 12.1947C4.9628 13.0873 6.81938 11.0161 7.04553 10.7029C7.58687 9.95339 4.55572 13.2277 4.03379 13.771C2.73747 15.1202 6.73578 11.1816 8.05883 9.85852C9.13865 8.77869 6.11043 11.4864 5.69447 12.1103C4.58208 13.7789 12.9418 8.006 8.21364 11.3503C7.77828 11.6583 4.50614 14.3609 5.75077 12.7014C6.60276 11.5654 9.7103 8.62925 8.70621 9.63334C7.66944 10.6701 4.71688 13.7843 7.60847 11.9133C8.26366 11.4893 2.06234 5.94327 1.585 5.1861C1.27232 4.69014 0.818734 3.76688 1.55685 4.79204C2.91392 6.67686 4.46576 8.39496 5.96187 10.1681C7.2626 11.7097 8.53875 13.536 9.38174 11.3081C10.0211 9.61836 10.7829 8.03448 11.6617 6.45272C11.7541 6.28625 12.8256 3.67646 12.6187 3.72245C12.1482 3.82699 10.8971 7.7389 10.5921 8.22599C9.64415 9.7396 8.68192 11.6561 7.41144 12.9266C7.20322 13.1348 7.35515 10.7957 7.35515 10.2948C7.35515 8.42563 7.21563 6.61814 7.08775 4.7639C7.0502 4.21931 6.59518 -0.577965 6.59518 1.48476C6.59518 5.57575 6.0261 9.37944 6.53889 13.5458C6.56955 13.7949 6.39726 16.9234 6.59518 16.9234C6.91895 16.9234 7.60847 14.4257 7.60847 13.9961" stroke="#00ADB5" stroke-linecap="round" stroke-linejoin="round"/>
</svg>
