<svg width="5" height="7" viewBox="0 0 5 7" fill="none" xmlns="http://www.w3.org/2000/svg">
<path d="M1.55198 1.13665C-0.05049 12.9367 5.40074 1.5835 1.60828 1.75588C0.553267 1.80384 0.0925084 4.37356 1.08756 4.37356C2.34595 4.37356 3.02234 2.54267 2.76231 1.50256C2.40933 0.0906309 1.01812 2.957 0.960894 3.27583C0.453908 6.10046 2.73583 3.31224 3.24081 2.40327C4.18484 0.704005 2.20964 2.27484 1.83345 2.79733C1.55393 3.18556 1.17501 5.5105 2.0727 4.61281C2.39282 4.2927 3.37317 1.5063 2.70601 1.86847C1.74837 2.38834 0.533991 4.64998 1.45347 5.64018C3.10522 7.41899 5.21181 -1.08722 1.5942 3.79655C1.17687 4.35995 0.560311 6.50734 2.00234 6.14683C2.58051 6.00229 4.33459 3.54231 3.42376 3.33212C1.293 2.84041 1.03274 7.84904 1.55198 2.65659" stroke="#00ADB5" stroke-linecap="round" stroke-linejoin="round"/>
</svg>
