<svg width="13" height="17" viewBox="0 0 13 17" fill="none" xmlns="http://www.w3.org/2000/svg">
<path d="M0.903839 3.0206C1.82376 2.56381 6.59299 -0.881617 5.32293 2.02138C4.91201 2.96063 4.20235 4.00132 3.49337 4.73757C2.33554 5.93994 1.31902 11.0469 3.63411 8.90334C4.53177 8.07218 6.73692 3.10688 8.25023 4.54054C10.4008 6.57789 7.97606 7.45127 6.60363 8.21374C4.61576 9.31811 4.99641 12.8568 7.49026 11.2536C8.41711 10.6578 10.4215 7.9422 11.4168 9.73368C12.4651 11.6206 8.78717 12.7907 9.02427 14.6876C9.20488 16.1324 10.5481 15.4196 11.2901 14.9831C11.7593 14.7071 11.1368 13.578 11.5434 12.9002" stroke="#00ADB5" stroke-linecap="round" stroke-linejoin="round"/>
</svg>
