<svg width="9" height="8" viewBox="0 0 9 8" fill="none" xmlns="http://www.w3.org/2000/svg">
<path d="M4.26566 2.33611C1.91187 13.1636 10.1843 3.01451 6.12337 1.02727C3.24298 -0.382282 -1.4658 4.44403 2.50647 6.07967C5.60866 7.35705 5.30923 1.1526 2.49239 2.91313C0.0779847 4.42213 1.78075 9.11205 3.68864 5.01008C5.08851 2.00038 1.48971 3.85383 2.40795 5.82635C4.09546 9.45137 6.95617 0.0115075 3.75901 3.20867C0.381418 6.58626 8.68291 5.69154 7.19296 2.4487C6.00616 -0.134318 2.25233 8.18558 5.39154 5.91079C8.69469 3.51721 6.54195 0.104631 4.20936 3.74347C1.1931 8.44884 10.8522 4.11006 6.25003 2.64573C1.92745 1.27036 2.86471 8.94427 5.27895 6.53003C8.87843 2.93055 3.71726 0.622182 3.30866 4.0953C2.96478 7.01824 6.77159 4.04255 4.37825 2.75832C3.39254 2.2294 1.7778 4.84664 2.21092 4.74269C2.79038 4.60362 4.65459 2.2264 4.40639 2.19538C3.98868 2.14316 3.26762 2.99065 2.90052 3.1946C2.81531 3.24194 3.32057 2.80638 3.89975 2.89905C5.5822 3.16825 4.21078 4.15899 2.99904 3.85605" stroke="#00ADB5" stroke-linecap="round" stroke-linejoin="round"/>
</svg>
